<?xml version="1.0" encoding="UTF-8" standalone="no"?>
<svg
   xmlns:osb="http://www.openswatchbook.org/uri/2009/osb"
   xmlns:dc="http://purl.org/dc/elements/1.1/"
   xmlns:cc="http://creativecommons.org/ns#"
   xmlns:rdf="http://www.w3.org/1999/02/22-rdf-syntax-ns#"
   xmlns:svg="http://www.w3.org/2000/svg"
   xmlns="http://www.w3.org/2000/svg"
   xmlns:sodipodi="http://sodipodi.sourceforge.net/DTD/sodipodi-0.dtd"
   xmlns:inkscape="http://www.inkscape.org/namespaces/inkscape"
   height="493"
   width="500"
   sodipodi:docname="app_icon.svg"
   inkscape:version="0.91 r13725"
   id="svg2"
   xml:space="preserve"
   enable-background="new 0 0 100 100"
   viewBox="0 0 500 493"
   y="0px"
   x="0px"
   version="1.1"
   inkscape:export-filename="C:\Users\ogasimli\Documents\GitHub\My Projects\Capstone-Project\Manat\app\src\main\res\mipmap-mdpi\ic_launcher.png"
   inkscape:export-xdpi="8.8100004"
   inkscape:export-ydpi="8.8100004"><sodipodi:namedview
     inkscape:current-layer="svg2"
     inkscape:window-maximized="1"
     inkscape:window-y="-8"
     inkscape:window-x="-8"
     inkscape:cy="252.64719"
     inkscape:cx="166.8521"
     inkscape:zoom="1.09"
     showgrid="false"
     id="namedview12"
     inkscape:window-height="801"
     inkscape:window-width="1536"
     inkscape:pageshadow="2"
     inkscape:pageopacity="0"
     guidetolerance="10"
     gridtolerance="10"
     objecttolerance="10"
     borderopacity="1"
     bordercolor="#666666"
     pagecolor="#ffffff"><sodipodi:guide
       position="0,0"
       orientation="0,576"
       id="guide6510" /><sodipodi:guide
       position="502.75229,503.66972"
       orientation="-576,0"
       id="guide6512" /><sodipodi:guide
       position="428.44037,493.57798"
       orientation="0,-576"
       id="guide6514" /><sodipodi:guide
       position="0,576"
       orientation="576,0"
       id="guide6516" /></sodipodi:namedview><metadata
     id="metadata16"><rdf:RDF><cc:Work
         rdf:about=""><dc:format>image/svg+xml</dc:format><dc:type
           rdf:resource="http://purl.org/dc/dcmitype/StillImage" /><dc:title /></cc:Work></rdf:RDF></metadata><defs
     id="defs14"><linearGradient
       id="linearGradient7112"
       osb:paint="solid"><stop
         style="stop-color:#707070;stop-opacity:1;"
         offset="0"
         id="stop7114" /></linearGradient><clipPath
       id="clipPath6789"
       clipPathUnits="userSpaceOnUse"><rect
         y="-21.440771"
         x="-15.577583"
         height="585.32947"
         width="607.25189"
         id="rect6791"
         style="opacity:1;fill:#f44336;fill-opacity:1;stroke:#f44336;stroke-width:136.55981445;stroke-linejoin:round;stroke-miterlimit:4;stroke-dasharray:none;stroke-opacity:1" /></clipPath><clipPath
       clipPathUnits="userSpaceOnUse"
       id="clipPath6986"><rect
         y="-82.4375"
         x="-78.695343"
         height="707.32294"
         width="733.48743"
         id="rect6988"
         style="opacity:1;fill:#f44336;fill-opacity:1;stroke:none;stroke-width:104.55403137;stroke-linejoin:round;stroke-miterlimit:4;stroke-dasharray:none;stroke-opacity:1" /></clipPath><clipPath
       clipPathUnits="userSpaceOnUse"
       id="clipPath4185"><rect
         style="opacity:0.55;fill:#009688;fill-opacity:1;fill-rule:nonzero;stroke:#000000;stroke-width:1.50000012;stroke-linecap:butt;stroke-linejoin:miter;stroke-miterlimit:0;stroke-dasharray:none;stroke-opacity:1"
         id="rect4187"
         width="550.56689"
         height="530.61871"
         x="13.885696"
         y="23.738178"
         rx="32"
         ry="32.200001" /></clipPath><clipPath
       clipPathUnits="userSpaceOnUse"
       id="clipPath4792"><rect
         style="opacity:0.55;fill:#009688;fill-opacity:1;fill-rule:nonzero;stroke:#000000;stroke-width:1.5;stroke-linecap:butt;stroke-linejoin:miter;stroke-miterlimit:0;stroke-dasharray:none;stroke-opacity:1"
         id="rect4794"
         width="541.73126"
         height="528.29175"
         x="18.303513"
         y="24.901672"
         rx="32.958401"
         ry="32.958401" /></clipPath><clipPath
       clipPathUnits="userSpaceOnUse"
       id="clipPath4839"><rect
         style="opacity:0.55;fill:#009688;fill-opacity:1;fill-rule:nonzero;stroke:#000000;stroke-width:1.5;stroke-linecap:butt;stroke-linejoin:miter;stroke-miterlimit:0;stroke-dasharray:none;stroke-opacity:1"
         id="rect4841"
         width="490.5"
         height="490.5"
         x="4.75"
         y="1.25"
         rx="32.958401"
         ry="32.958401" /></clipPath></defs><g
     id="g4816"
     clip-path="url(#clipPath4839)"><rect
       ry="32.958366"
       y="1.5"
       x="5"
       height="490"
       width="490"
       id="rect6825"
       style="opacity:1;fill:#f44336;fill-opacity:1;stroke:none;stroke-width:104.55403137;stroke-linejoin:round;stroke-miterlimit:4;stroke-dasharray:none;stroke-opacity:1"
       rx="32.958366" /><g
       clip-path="url(#clipPath6986)"
       id="g6827"
       transform="matrix(0.69309749,0,0,0.71072962,50.492415,55.75027)"
       style="opacity:0.353;fill:#000000"><path
         style="fill:#000000;fill-opacity:1;stroke:none;stroke-width:5.54558945"
         inkscape:connector-curvature="0"
         id="path6829"
         d="m 262.82856,452.19878 10.53662,-362.12699 35.49177,-14.97309 4.43648,348.26301 -50.46487,28.83707 z" /><g
         id="g6831"
         style="fill:#000000"><g
           style="fill:#000000"
           id="g6936"><g
             style="fill:#000000;fill-opacity:1;stroke:none;stroke-width:5.54558945"
             id="g6938"><path
               style="fill:#000000"
               d="m 42.101466,463.46731 49.355746,2.21824 212.132038,212.13203 -49.35575,-2.21824 z"
               id="path6940"
               inkscape:connector-curvature="0" /><path
               style="fill:#000000"
               d="M 91.457212,465.68555 C 92.566332,223.89785 222.33313,144.04136 286.1074,141.82313 l 212.13203,212.13203 c -63.77427,2.21823 -193.54106,82.07472 -194.65018,323.86242 z"
               id="path6942"
               inkscape:connector-curvature="0" /><path
               style="fill:#000000"
               d="m 286.1074,141.82313 c 47.72519,1.53457 83.77262,19.5454 111.07999,46.85277 l 212.13203,212.13203 c -27.30736,-27.30736 -63.3548,-45.31819 -111.07999,-46.85277 z"
               id="path6944"
               inkscape:connector-curvature="0" /><path
               style="fill:#000000"
               d="m 397.18739,188.6759 c 71.37515,71.37515 83.04,206.26228 87.45212,276.45509 l 212.13203,212.13203 c -4.41212,-70.1928 -16.07697,-205.07994 -87.45212,-276.45509 z"
               id="path6946"
               inkscape:connector-curvature="0" /><path
               style="fill:#000000"
               d="m 484.63951,465.13099 49.35574,2.21824 212.13203,212.13203 -49.35574,-2.21824 z"
               id="path6948"
               inkscape:connector-curvature="0" /><path
               sodipodi:nodetypes="ccscc"
               inkscape:connector-curvature="0"
               style="fill:#000000"
               d="M 533.99525,467.34923 C 531.68622,328.80725 485.62283,227.34856 426.61601,168.34173 l 212.13203,212.13204 c 59.00683,59.00682 34.61612,82.18317 36.92514,220.72516 z"
               id="path6950" /><path
               style="fill:#000000"
               d="M 426.61601,168.34173 C 386.42142,128.14714 340.2209,107.65079 297.75315,108.54958 l 212.13203,212.13203 c 42.46775,-0.89878 88.66827,19.59757 128.86286,59.79216 z"
               id="path6952"
               inkscape:connector-curvature="0" /><path
               style="fill:#000000"
               d="M 297.75315,108.54958 C 119.18517,114.64973 50.974412,297.65419 42.101466,463.46731 L 254.2335,675.59934 c 8.87295,-165.81312 77.0837,-348.81758 255.65168,-354.91773 z"
               id="path6954"
               inkscape:connector-curvature="0" /></g><path
             d="m 42.101466,463.46731 49.355746,2.21824 C 92.566332,223.89785 222.33313,144.04136 286.1074,141.82313 c 172.46783,5.54559 192.43196,226.26004 198.53211,323.30786 l 49.35574,2.21824 C 530.11335,234.43447 402.56479,106.33135 297.75315,108.54958 119.18517,114.64973 50.974412,297.65419 42.101466,463.46731 Z"
             id="path6833"
             inkscape:connector-curvature="0"
             style="fill:#000000;fill-opacity:1;stroke:none;stroke-width:5.54558945" /></g></g></g><g
       transform="matrix(0.69309749,0,0,0.71072962,50.354406,53.733094)"
       id="g4421"><path
         d="m 262.82856,452.19878 10.53662,-362.12699 35.49177,-14.97309 4.43648,348.26301 -50.46487,28.83707 z"
         id="path4"
         inkscape:connector-curvature="0"
         style="fill:#ffffff;fill-opacity:1;stroke:none;stroke-width:5.54558945" /><g
         id="g4418"><path
           style="fill:#ffffff;fill-opacity:1;stroke:none;stroke-width:5.54558945"
           inkscape:connector-curvature="0"
           id="path6"
           d="m 42.101466,463.46731 49.355746,2.21824 C 92.566332,223.89785 222.33313,144.04136 286.1074,141.82313 c 172.46783,5.54559 192.43196,226.26004 198.53211,323.30786 l 49.35574,2.21824 C 530.11335,234.43447 402.56479,106.33135 297.75315,108.54958 119.18517,114.64973 50.974412,297.65419 42.101466,463.46731 Z" /></g></g></g></svg>