<?xml version="1.0" encoding="UTF-8" standalone="no"?>
<svg
   xmlns:osb="http://www.openswatchbook.org/uri/2009/osb"
   xmlns:dc="http://purl.org/dc/elements/1.1/"
   xmlns:cc="http://creativecommons.org/ns#"
   xmlns:rdf="http://www.w3.org/1999/02/22-rdf-syntax-ns#"
   xmlns:svg="http://www.w3.org/2000/svg"
   xmlns="http://www.w3.org/2000/svg"
   xmlns:sodipodi="http://sodipodi.sourceforge.net/DTD/sodipodi-0.dtd"
   xmlns:inkscape="http://www.inkscape.org/namespaces/inkscape"
   height="493"
   width="500"
   sodipodi:docname="app_icon_circle.svg"
   inkscape:version="0.91 r13725"
   id="svg2"
   xml:space="preserve"
   enable-background="new 0 0 100 100"
   viewBox="0 0 500 493"
   y="0px"
   x="0px"
   version="1.1"
   inkscape:export-filename="C:\Users\ogasimli\Documents\GitHub\My Projects\Capstone-Project\Manat\app\src\main\res\drawable-xxxhdpi\ic_app_icon.png"
   inkscape:export-xdpi="35.27"
   inkscape:export-ydpi="35.27"><sodipodi:namedview
     inkscape:current-layer="svg2"
     inkscape:window-maximized="1"
     inkscape:window-y="-8"
     inkscape:window-x="-8"
     inkscape:cy="79.607273"
     inkscape:cx="24.826312"
     inkscape:zoom="0.545"
     showgrid="false"
     id="namedview12"
     inkscape:window-height="801"
     inkscape:window-width="1536"
     inkscape:pageshadow="2"
     inkscape:pageopacity="0"
     guidetolerance="10"
     gridtolerance="10"
     objecttolerance="10"
     borderopacity="1"
     bordercolor="#666666"
     pagecolor="#ffffff"><sodipodi:guide
       position="0,0"
       orientation="0,576"
       id="guide6510" /><sodipodi:guide
       position="502.75229,503.66972"
       orientation="-576,0"
       id="guide6512" /><sodipodi:guide
       position="428.44037,493.57798"
       orientation="0,-576"
       id="guide6514" /><sodipodi:guide
       position="0,576"
       orientation="576,0"
       id="guide6516" /></sodipodi:namedview><metadata
     id="metadata16"><rdf:RDF><cc:Work
         rdf:about=""><dc:format>image/svg+xml</dc:format><dc:type
           rdf:resource="http://purl.org/dc/dcmitype/StillImage" /><dc:title></dc:title></cc:Work></rdf:RDF></metadata><defs
     id="defs14"><linearGradient
       id="linearGradient7112"
       osb:paint="solid"><stop
         style="stop-color:#707070;stop-opacity:1;"
         offset="0"
         id="stop7114" /></linearGradient><clipPath
       id="clipPath6789"
       clipPathUnits="userSpaceOnUse"><rect
         y="-21.440771"
         x="-15.577583"
         height="585.32947"
         width="607.25189"
         id="rect6791"
         style="opacity:1;fill:#f44336;fill-opacity:1;stroke:#f44336;stroke-width:136.55981445;stroke-linejoin:round;stroke-miterlimit:4;stroke-dasharray:none;stroke-opacity:1" /></clipPath><clipPath
       clipPathUnits="userSpaceOnUse"
       id="clipPath6986"><rect
         y="-82.4375"
         x="-78.695343"
         height="707.32294"
         width="733.48743"
         id="rect6988"
         style="opacity:1;fill:#f44336;fill-opacity:1;stroke:none;stroke-width:104.55403137;stroke-linejoin:round;stroke-miterlimit:4;stroke-dasharray:none;stroke-opacity:1" /></clipPath><clipPath
       clipPathUnits="userSpaceOnUse"
       id="clipPath4185"><rect
         style="opacity:0.55;fill:#009688;fill-opacity:1;fill-rule:nonzero;stroke:#000000;stroke-width:1.50000012;stroke-linecap:butt;stroke-linejoin:miter;stroke-miterlimit:0;stroke-dasharray:none;stroke-opacity:1"
         id="rect4187"
         width="550.56689"
         height="530.61871"
         x="13.885696"
         y="23.738178"
         rx="32"
         ry="32.200001" /></clipPath><clipPath
       clipPathUnits="userSpaceOnUse"
       id="clipPath4792"><rect
         style="opacity:0.55;fill:#009688;fill-opacity:1;fill-rule:nonzero;stroke:#000000;stroke-width:1.5;stroke-linecap:butt;stroke-linejoin:miter;stroke-miterlimit:0;stroke-dasharray:none;stroke-opacity:1"
         id="rect4794"
         width="541.73126"
         height="528.29175"
         x="18.303513"
         y="24.901672"
         rx="32.958401"
         ry="32.958401" /></clipPath><clipPath
       clipPathUnits="userSpaceOnUse"
       id="clipPath4839"><rect
         style="opacity:0.55;fill:#009688;fill-opacity:1;fill-rule:nonzero;stroke:#000000;stroke-width:1.5;stroke-linecap:butt;stroke-linejoin:miter;stroke-miterlimit:0;stroke-dasharray:none;stroke-opacity:1"
         id="rect4841"
         width="490.5"
         height="490.5"
         x="4.75"
         y="1.25"
         rx="32.958401"
         ry="32.958401" /></clipPath></defs><rect
     rx="245"
     style="opacity:1;fill:#f44336;fill-opacity:1;stroke:none;stroke-width:104.55403137;stroke-linejoin:round;stroke-miterlimit:4;stroke-dasharray:none;stroke-opacity:1"
     id="rect6825"
     width="490"
     height="490"
     x="5"
     y="1.5"
     ry="245" /><g
     style="opacity:0.353;fill:#000000"
     transform="matrix(0.69309749,0,0,0.71072962,50.492415,55.75027)"
     id="g6827"
     clip-path="url(#clipPath6986)"><path
       d="m 262.82856,452.19878 10.53662,-362.12699 35.49177,-14.97309 4.43648,348.26301 -50.46487,28.83707 z"
       id="path6829"
       inkscape:connector-curvature="0"
       style="fill:#000000;fill-opacity:1;stroke:none;stroke-width:5.54558945" /><g
       style="fill:#000000"
       id="g6831"><g
         id="g6936"
         style="fill:#000000"><g
           id="g6938"
           style="fill:#000000;fill-opacity:1;stroke:none;stroke-width:5.54558945"><path
             inkscape:connector-curvature="0"
             id="path6940"
             d="m 42.101466,460.88565 49.355746,4.7999 202.912808,147.16984 c -30.11444,1.27059 -63.71006,-2.24925 -100.03891,-11.93583 z"
             style="fill:#000000"
             sodipodi:nodetypes="ccccc" /><path
             inkscape:connector-curvature="0"
             id="path6942"
             d="M 91.457212,465.68555 C 92.566332,223.89785 222.33313,144.04136 286.1074,141.82313 l 212.13203,212.13203 c -63.77427,2.21823 -203.09121,17.03759 -204.20033,258.82529 z"
             style="fill:#000000"
             sodipodi:nodetypes="ccccc" /><path
             inkscape:connector-curvature="0"
             id="path6944"
             d="m 286.1074,141.82313 c 47.72519,1.53457 83.77262,19.5454 111.07999,46.85277 l 212.13203,212.13203 c -27.30736,-27.30736 -63.3548,-45.31819 -111.07999,-46.85277 z"
             style="fill:#000000" /><path
             inkscape:connector-curvature="0"
             id="path6946"
             d="m 397.18739,188.6759 c 71.37515,71.37515 120.57522,281.5465 87.68611,275.31415 l 55.0032,46.22121 c 50.01197,-46.8594 72.25064,-104.38318 72.25064,-104.38318 z"
             style="fill:#000000"
             sodipodi:nodetypes="ccccc" /><path
             inkscape:connector-curvature="0"
             id="path6948"
             d="m 484.63951,465.13099 49.35574,2.21824 37.73873,7.53545 8.88566,-13.513 z"
             style="fill:#000000"
             sodipodi:nodetypes="ccccc" /><path
             id="path6950"
             d="M 533.99525,467.34923 C 531.68622,328.80725 485.62283,227.34856 426.61601,168.34173 l 200.52641,198.99555 c 0,0 -4.99986,14.64834 -14.90436,38.84113 z"
             style="fill:#000000"
             inkscape:connector-curvature="0"
             sodipodi:nodetypes="ccccc" /><path
             inkscape:connector-curvature="0"
             id="path6952"
             d="M 426.61601,168.34173 C 386.5899,127.98757 340.2209,107.65079 297.75315,108.54958 l 212.13203,212.13203 c 42.46775,-0.89878 75.10067,7.65739 115.29526,47.85198 z"
             style="fill:#000000"
             sodipodi:nodetypes="scccs" /></g><path
           style="fill:#000000;fill-opacity:1;stroke:none;stroke-width:5.54558945"
           inkscape:connector-curvature="0"
           id="path6833"
           d="m 42.101466,461.36971 49.355746,4.31584 C 92.566332,223.89785 222.33313,144.04136 286.1074,141.82313 c 172.46783,5.54559 192.43196,226.26004 198.53211,323.30786 l 49.35574,2.21824 C 530.11335,234.43447 402.56479,106.33135 297.75315,108.54958 119.18517,114.64973 50.974412,295.55659 42.101466,461.36971 Z"
           sodipodi:nodetypes="ccccccc" /></g></g></g><g
     id="g4421"
     transform="matrix(0.69309749,0,0,0.71072962,50.354406,53.733094)"><path
       style="fill:#ffffff;fill-opacity:1;stroke:none;stroke-width:5.54558945"
       inkscape:connector-curvature="0"
       id="path4"
       d="m 262.82856,452.19878 10.53662,-362.12699 35.49177,-14.97309 4.43648,348.26301 -50.46487,28.83707 z" /><g
       id="g4418"><path
         d="m 42.101466,463.46731 49.355746,2.21824 C 92.566332,223.89785 222.33313,144.04136 286.1074,141.82313 c 172.46783,5.54559 192.43196,226.26004 198.53211,323.30786 l 49.35574,2.21824 C 530.11335,234.43447 402.56479,106.33135 297.75315,108.54958 119.18517,114.64973 50.974412,297.65419 42.101466,463.46731 Z"
         id="path6"
         inkscape:connector-curvature="0"
         style="fill:#ffffff;fill-opacity:1;stroke:none;stroke-width:5.54558945" /></g></g></svg>